<?xml version="1.0" encoding="UTF-8" standalone="no"?>
<!-- Created with Inkscape (http://www.inkscape.org/) -->

<svg
   width="135.40347mm"
   height="26.223078mm"
   viewBox="0 0 135.40347 26.223078"
   version="1.1"
   id="svg1"
   inkscape:version="1.3 (0e150ed6c4, 2023-07-21)"
   sodipodi:docname="logo-dark.svg"
   xmlns:inkscape="http://www.inkscape.org/namespaces/inkscape"
   xmlns:sodipodi="http://sodipodi.sourceforge.net/DTD/sodipodi-0.dtd"
   xmlns="http://www.w3.org/2000/svg"
   xmlns:svg="http://www.w3.org/2000/svg">
  <sodipodi:namedview
     id="namedview1"
     pagecolor="#ffffff"
     bordercolor="#000000"
     borderopacity="0.25"
     inkscape:showpageshadow="2"
     inkscape:pageopacity="0.0"
     inkscape:pagecheckerboard="0"
     inkscape:deskcolor="#d1d1d1"
     inkscape:document-units="mm"
     inkscape:zoom="1.3707237"
     inkscape:cx="249.868"
     inkscape:cy="-16.049916"
     inkscape:window-width="1440"
     inkscape:window-height="740"
     inkscape:window-x="-6"
     inkscape:window-y="-6"
     inkscape:window-maximized="1"
     inkscape:current-layer="layer1" />
  <defs
     id="defs1" />
  <g
     inkscape:label="Layer 1"
     inkscape:groupmode="layer"
     id="layer1"
     transform="translate(-14.21877,-171.31381)">
    <path
       fill-rule="nonzero"
       fill="#389826"
       fill-opacity="1"
       d="m 44.718934,174.19398 c 0,1.59053 -1.327271,2.88018 -2.964192,2.88018 -1.637585,0 -2.964193,-1.28965 -2.964193,-2.88018 0,-1.59053 1.326608,-2.88018 2.964193,-2.88018 1.636921,0 2.964192,1.28965 2.964192,2.88018 z"
       id="path3"
       style="stroke-width:0.166965"
       sodipodi:nodetypes="sssss" />
    <path
       fill-rule="nonzero"
       fill="#9558b2"
       fill-opacity="1"
       d="m 48.279272,180.18771 c 0,1.59117 -1.32727,2.88018 -2.964192,2.88018 -1.636922,0 -2.964192,-1.28901 -2.964192,-2.88018 0,-1.59052 1.32727,-2.88018 2.964192,-2.88018 1.636922,0 2.964192,1.28966 2.964192,2.88018 z"
       id="path4"
       style="stroke-width:0.166965"
       sodipodi:nodetypes="sssss" />
    <path
       fill-rule="nonzero"
       fill="#cb3c33"
       fill-opacity="1"
       d="m 41.157272,180.18771 c 0,1.59117 -1.586518,2.88018 -2.964192,2.88018 -1.377674,0 -2.964192,-1.28901 -2.964192,-2.88018 0,-1.59052 1.326608,-2.88018 2.964192,-2.88018 1.636922,0 2.964192,1.28966 2.964192,2.88018 z"
       id="path5"
       style="stroke-width:0.166965"
       sodipodi:nodetypes="sasss" />
    <path
       style="font-size:96px;font-family:'Segoe UI Variable';-inkscape-font-specification:'Segoe UI Variable';white-space:pre;fill:#ffffff"
       d="m 61.615234,720.05836 v 24.65625 h -7.875 v -67.21875 h 18.46875 c 7.1875,0 12.75,1.79688 16.6875,5.39063 3.96875,3.5625 5.953125,8.57812 5.953125,15.04687 0,6.46875 -2.203125,11.78125 -6.609375,15.9375 -4.375,4.125 -10.296875,6.1875 -17.765625,6.1875 z m 0,-35.4375 v 28.3125 h 8.25 c 5.4375,0 9.578125,-1.28125 12.421875,-3.84375 2.875,-2.5625 4.3125,-6.15625 4.3125,-10.78125 0,-4.5625 -1.3125,-7.98437 -3.9375,-10.26562 -2.625,-2.28125 -6.5625,-3.42188 -11.8125,-3.42188 z m 68.484376,19.3125 c -0.75,-0.34375 -1.5625,-0.625 -2.4375,-0.84375 -0.84375,-0.21875 -1.79688,-0.32812 -2.85938,-0.32812 -3.4375,0 -6.23437,1.64062 -8.39062,4.92187 -2.125,3.28125 -3.1875,7.46875 -3.1875,12.5625 v 24.46875 h -7.6875 v -48 h 7.6875 v 8.76563 h 0.1875 c 1.09375,-3 2.76562,-5.34375 5.01562,-7.03125 2.25,-1.71875 4.76563,-2.57813 7.54688,-2.57813 1.28125,0 2.4375,0.10938 3.46875,0.32813 1.03125,0.1875 2.20312,0.59375 3.51562,1.21875 z m 17.625,40.78125 h -7.6875 l -0.18239,-44.71706 7.86989,-3.28294 z m 53.48437,-7.21875 c -2.125,2.875 -4.71875,4.98438 -7.78125,6.32813 -3.0625,1.3125 -6.34375,1.96875 -9.84375,1.96875 -7.78125,0 -13.84375,-2.23438 -18.1875,-6.70313 -4.3125,-4.46875 -6.46875,-10.39062 -6.46875,-17.76562 0,-7.96875 2.23438,-14.25 6.70313,-18.84375 4.46875,-4.59375 10.26562,-6.89063 17.39062,-6.89063 3.71875,0 7.14063,0.70313 10.26563,2.10938 3.125,1.375 5.75,3.46875 7.875,6.28125 l -5.71875,4.21875 c -1.9375,-2.25 -3.92188,-3.79688 -5.95313,-4.64063 -2,-0.875 -4.25,-1.3125 -6.75,-1.3125 -4.65625,0 -8.48437,1.71875 -11.48437,5.15625 -2.96875,3.40625 -4.45313,7.85938 -4.45313,13.35938 0,5.5625 1.5,10.01562 4.5,13.35937 3.03125,3.34375 7.1875,5.01563 12.46875,5.01563 2.0625,0 4.125,-0.42188 6.1875,-1.26563 2.09375,-0.875 3.9375,-2.40625 5.53125,-4.59375 z m 49.92188,-15.42187 h -34.64063 c 0,5.9375 1.40625,10.28125 4.21875,13.03125 2.84375,2.71875 6.21875,4.07812 10.125,4.07812 2.9375,0 5.51563,-0.67187 7.73438,-2.01562 2.25,-1.375 4.10937,-3.40625 5.57812,-6.09375 l 6.28125,3.1875 c -1.6875,3.4375 -4.23437,6.23437 -7.64062,8.39062 -3.375,2.125 -7.53125,3.1875 -12.46875,3.1875 -6.375,0 -11.60938,-2.10937 -15.70313,-6.32812 -4.0625,-4.21875 -6.09375,-10.42188 -6.09375,-18.60938 0,-7.28125 2.0625,-13.3125 6.1875,-18.09375 4.125,-4.8125 9.40625,-7.21875 15.84375,-7.21875 6.53125,0 11.59375,1.98438 15.1875,5.95313 3.59375,3.9375 5.39063,9.4375 5.39063,16.5 z m -7.875,-6.42188 c 0,-4.15625 -1.14063,-7.42187 -3.42188,-9.79687 -2.28125,-2.40625 -5.42187,-3.60938 -9.42187,-3.60938 -3.875,0 -7.04688,1.28125 -9.51563,3.84375 -2.4375,2.5625 -3.89062,5.75 -4.35937,9.5625 z"
       id="text1"
       transform="scale(0.26458333)"
       aria-label="Price Indexes"
       sodipodi:nodetypes="ccccscscscccscssscccscscccccccsccccccccccscsssccccscscsccccccsccccscscscscccsccc" />
    <path
       d="m 70.222455,197.23922 h -2.083594 v -17.78496 h 2.083594 z m 14.696775,0 h -2.033984 v -7.54063 c 0,-1.2485 -0.239778,-2.17454 -0.719336,-2.77812 -0.479557,-0.61185 -1.194757,-0.91778 -2.145604,-0.91778 -1.07487,0 -1.947169,0.38034 -2.616896,1.14102 -0.661458,0.75241 -0.992187,1.70325 -0.992187,2.85254 v 7.24297 h -2.033984 v -12.7 h 2.033984 v 1.81074 h 0.04961 c 0.479558,-0.7028 1.066602,-1.22783 1.761133,-1.5751 0.694531,-0.35553 1.49655,-0.5333 2.406055,-0.5333 1.389062,0 2.451531,0.45062 3.187403,1.35186 0.735873,0.89297 1.103807,2.18694 1.103807,3.88193 z M 97.458,195.37887 c -0.47129,0.70279 -1.07487,1.24023 -1.81074,1.6123 -0.72761,0.3638 -1.53789,0.5457 -2.43086,0.5457 -1.77767,0 -3.154331,-0.56637 -4.129982,-1.69912 -0.967383,-1.14101 -1.451073,-2.69131 -1.451073,-4.65088 0,-2.14974 0.549836,-3.84472 1.64951,-5.08496 1.099675,-1.24023 2.534214,-1.86035 4.303615,-1.86035 0.85989,0 1.62057,0.1571 2.28203,0.47129 0.66972,0.31419 1.19889,0.74414 1.5875,1.28984 h 0.0496 v -6.11774 l 2.033976,-1.44769 v 18.80196 H 97.5076 v -1.86035 z m -7.739061,-4.29122 c 0,1.43868 0.330729,2.57969 0.992187,3.42305 0.669727,0.84336 1.591633,1.26504 2.765714,1.26504 1.24024,0 2.22003,-0.40514 2.93936,-1.21543 0.72761,-0.81029 1.09141,-1.83141 1.09141,-3.06338 v -1.87275 c 0,-1.00873 -0.3514,-1.86449 -1.0542,-2.56729 -0.69453,-0.7028 -1.59577,-1.0542 -2.70371,-1.0542 -1.23197,0 -2.211751,0.43409 -2.939355,1.30225 -0.727604,0.86816 -1.091406,2.12907 -1.091406,3.78271 z m 24.097751,0.16124 h -9.16533 c 0,1.57096 0.37207,2.72024 1.11621,3.44785 0.75241,0.71933 1.64538,1.079 2.6789,1.079 0.77722,0 1.45935,-0.17777 2.04639,-0.5333 0.59531,-0.3638 1.08727,-0.90124 1.47588,-1.6123 l 1.66191,0.84336 c -0.44648,0.9095 -1.12034,1.64951 -2.02158,2.22001 -0.89297,0.56224 -1.99264,0.84336 -3.29902,0.84336 -1.68672,0 -3.07165,-0.5581 -4.15479,-1.67431 -1.07487,-1.11621 -1.6123,-2.75746 -1.6123,-4.92373 0,-1.9265 0.5457,-3.52227 1.63711,-4.78731 1.0914,-1.27331 2.48873,-1.90996 4.19199,-1.90996 1.72806,0 3.06751,0.52503 4.01836,1.5751 0.95085,1.0418 1.42627,2.497 1.42627,4.36562 z m -2.0836,-1.69913 c 0,-1.09967 -0.30179,-1.9637 -0.90537,-2.59208 -0.60358,-0.63666 -1.43454,-0.95499 -2.49287,-0.95499 -1.02526,0 -1.86448,0.339 -2.51767,1.017 -0.64492,0.67799 -1.0294,1.52135 -1.15342,2.53007 z m 14.18828,-5.01054 -4.2664,6.42441 4.19199,6.27559 h -2.31924 l -2.53007,-3.89434 c -0.0827,-0.13229 -0.1695,-0.27698 -0.26046,-0.43408 -0.0909,-0.1571 -0.19016,-0.33486 -0.29765,-0.5333 h -0.0496 c -0.0248,0.0331 -0.0827,0.13229 -0.17363,0.29765 -0.0909,0.16537 -0.23565,0.38861 -0.43408,0.66973 l -2.6045,3.89434 h -2.26963 l 4.32842,-6.22598 -4.14238,-6.47402 h 2.31924 l 2.50527,4.10517 c 0.0992,0.16537 0.19017,0.33073 0.27285,0.4961 0.0827,0.16536 0.1695,0.33073 0.26045,0.49609 h 0.0496 c 0.0992,-0.16536 0.1943,-0.33073 0.28525,-0.49609 0.0992,-0.16537 0.20258,-0.33073 0.31006,-0.4961 l 2.6293,-4.10517 z m 12.53877,6.70967 h -9.16533 c 0,1.57096 0.37207,2.72024 1.11621,3.44785 0.75241,0.71933 1.64538,1.079 2.67891,1.079 0.77721,0 1.45934,-0.17777 2.04639,-0.5333 0.59531,-0.3638 1.08727,-0.90124 1.47587,-1.6123 l 1.66192,0.84336 c -0.44649,0.9095 -1.12035,1.64951 -2.02158,2.22001 -0.89297,0.56224 -1.99265,0.84336 -3.29903,0.84336 -1.68671,0 -3.07164,-0.5581 -4.15478,-1.67431 -1.07487,-1.11621 -1.61231,-2.75746 -1.61231,-4.92373 0,-1.9265 0.54571,-3.52227 1.63711,-4.78731 1.09141,-1.27331 2.48874,-1.90996 4.19199,-1.90996 1.72806,0 3.06752,0.52503 4.01836,1.5751 0.95085,1.0418 1.42627,2.497 1.42627,4.36562 z m -2.08359,-1.69913 c 0,-1.09967 -0.30179,-1.9637 -0.90537,-2.59208 -0.60358,-0.63666 -1.43454,-0.95499 -2.49287,-0.95499 -1.02526,0 -1.86449,0.339 -2.51768,1.017 -0.64492,0.67799 -1.02939,1.52135 -1.15341,2.53007 z m 4.14238,5.19659 1.73633,-0.75655 c 0.28112,0.62839 0.66973,1.08314 1.16582,1.36426 0.50436,0.28112 1.12035,0.42168 1.84795,0.42168 0.69453,0 1.26917,-0.17363 1.72393,-0.5209 0.46302,-0.34726 0.69453,-0.84749 0.69453,-1.50068 0,-0.49609 -0.20257,-0.92191 -0.60772,-1.27744 -0.39687,-0.36381 -1.02526,-0.64079 -1.88515,-0.83096 -1.60404,-0.35553 -2.69545,-0.84336 -3.27422,-1.46348 -0.57051,-0.62011 -0.85576,-1.35185 -0.85576,-2.19521 0,-1.19063 0.41341,-2.11253 1.24023,-2.76572 0.83509,-0.65319 1.83141,-0.97979 2.98896,-0.97979 0.93431,0 1.77767,0.19431 2.53008,0.58291 0.76068,0.38861 1.32705,0.98805 1.69913,1.79834 l -1.66192,0.76895 c -0.24805,-0.47129 -0.57877,-0.81856 -0.99219,-1.0418 -0.41341,-0.23151 -0.95498,-0.34727 -1.6247,-0.34727 -0.64493,0 -1.18649,0.1571 -1.62471,0.47129 -0.43822,0.3142 -0.65733,0.74828 -0.65733,1.30225 0,0.5209 0.17777,0.92191 0.53331,1.20303 0.35553,0.27285 1.06246,0.52916 2.1208,0.76894 1.38079,0.30593 2.39365,0.77721 3.03857,1.41387 0.64492,0.62838 0.96738,1.45107 0.96738,2.46807 0,1.24023 -0.42994,2.20348 -1.28984,2.88974 -0.85163,0.678 -1.87276,1.01699 -3.06338,1.01699 -1.23197,0 -2.24069,-0.25218 -3.02617,-0.75654 -0.77722,-0.51263 -1.35186,-1.19062 -1.72393,-2.03398 z"
       style="font-size:96px;font-family:'Segoe UI Variable';-inkscape-font-specification:'Segoe UI Variable';white-space:pre;fill:#ffffff"
       id="path1-8"
       sodipodi:nodetypes="cccccccscscscccccccscscccscssscccccccccscscsscssscccsccccscscscscccscccccccccccscccccccscccccccccsccccscscscscccsccccccscscccscsccccssscccscscc" />
  </g>
</svg>
